0
SECTION
2
HEADER
9
$INSUNITS
70
4
9
$ACADVER
1
AC1014
9
$HANDSEED
5
FFFF
0
ENDSEC
0
SECTION
2
TABLES
0
TABLE
2
VPORT
5
8
100
AcDbSymbolTable
0
ENDTAB
0
TABLE
2
LTYPE
5
5
100
AcDbSymbolTable
0
LTYPE
5
14
100
AcDbSymbolTableRecord
100
AcDbLinetypeTableRecord
2
BYBLOCK
70
0
0
LTYPE
5
15
100
AcDbSymbolTableRecord
100
AcDbLinetypeTableRecord
2
BYLAYER
70
0
0
ENDTAB
0
TABLE
2
LAYER
5
2
100
AcDbSymbolTable
70
2
0
LAYER
5
50
100
AcDbSymbolTableRecord
100
AcDbLayerTableRecord
2
0
70
0
6
CONTINUOUS
0
ENDTAB
0
TABLE
2
STYLE
5
3
100
AcDbSymbolTable
70
1
0
STYLE
5
11
100
AcDbSymbolTableRecord
100
AcDbTextStyleTableRecord
2
STANDARD
70
0
0
ENDTAB
0
TABLE
2
VIEW
5
6
100
AcDbSymbolTable
70
0
0
ENDTAB
0
TABLE
2
UCS
5
7
100
AcDbSymbolTable
70
0
0
ENDTAB
0
TABLE
2
APPID
5
9
100
AcDbSymbolTable
70
2
0
APPID
5
12
100
AcDbSymbolTableRecord
100
AcDbRegAppTableRecord
2
ACAD
70
0
0
ENDTAB
0
TABLE
2
DIMSTYLE
5
A
100
AcDbSymbolTable
70
1
0
ENDTAB
0
TABLE
2
BLOCK_RECORD
5
1
100
AcDbSymbolTable
70
1
0
BLOCK_RECORD
5
1F
100
AcDbSymbolTableRecord
100
AcDbBlockTableRecord
2
*MODEL_SPACE
0
BLOCK_RECORD
5
1B
100
AcDbSymbolTableRecord
100
AcDbBlockTableRecord
2
*PAPER_SPACE
0
ENDTAB
0
ENDSEC
0
SECTION
2
BLOCKS
0
BLOCK
5
20
100
AcDbEntity
100
AcDbBlockBegin
2
*MODEL_SPACE
0
ENDBLK
5
21
100
AcDbEntity
100
AcDbBlockEnd
0
BLOCK
5
1C
100
AcDbEntity
100
AcDbBlockBegin
2
*PAPER_SPACE
0
ENDBLK
5
1D
100
AcDbEntity
100
AcDbBlockEnd
0
ENDSEC
0
SECTION
2
ENTITIES
0
LWPOLYLINE
5
100
100
AcDbEntity
8
0
100
AcDbPolyline
90
6
70
1
43
0.0
10
-84.520725907274951
20
58.49999920725822
10
-86.541451849438644
20
54.999999207258213
10
-84.520725907274951
20
51.499999207258199
10
-80.479274022947536
20
51.499999207258213
10
-78.458548080783856
20
54.999999207258213
10
-80.47927402294755
20
58.499999207258213
0
LWPOLYLINE
5
101
100
AcDbEntity
8
0
100
AcDbPolyline
90
6
70
1
43
0.0
10
84.520725977052479
20
-58.500000792741673
10
86.541451919216172
20
-55.000000792741673
10
84.520725977052507
20
-51.50000079274168
10
80.479274092725149
20
-51.50000079274168
10
78.458548150561441
20
-55.000000792741673
10
80.47927409272512
20
-58.500000792741673
0
LWPOLYLINE
5
102
100
AcDbEntity
8
0
100
AcDbPolyline
90
6
70
1
43
0.0
10
-80.479274022947578
20
-58.500000792741673
10
-78.458548080783842
20
-55.000000792741673
10
-80.47927402294755
20
-51.50000079274168
10
-84.520725907274937
20
-51.50000079274168
10
-86.54145184943863
20
-55.000000792741673
10
-84.520725907274951
20
-58.500000792741673
0
LWPOLYLINE
5
103
100
AcDbEntity
8
0
100
AcDbPolyline
90
6
70
1
43
0.0
10
80.479274092725149
20
58.499999207258199
10
78.458548150561469
20
54.999999207258206
10
80.479274092725149
20
51.49999920725822
10
84.520725977052521
20
51.499999207258213
10
86.5414519192162
20
54.999999207258213
10
84.520725977052507
20
58.499999207258213
0
CIRCLE
5
104
100
AcDbEntity
8
0
100
AcDbCircle
10
61.122751528774899
20
-48.698886861414579
30
0
40
1.749999999999998
0
CIRCLE
5
105
100
AcDbEntity
8
0
100
AcDbCircle
10
61.122751528774693
20
1.3011135111143535
30
0
40
1.749999999999998
0
CIRCLE
5
106
100
AcDbEntity
8
0
100
AcDbCircle
10
3.4888769651076062e-08
20
-50.000000792741766
30
0
40
1.5000000000000002
0
CIRCLE
5
107
100
AcDbEntity
8
0
100
AcDbCircle
10
25.000001092871216
20
19.999999445676817
30
0
40
1.4999999999999991
0
CIRCLE
5
108
100
AcDbEntity
8
0
100
AcDbCircle
10
-24.999999965111233
20
19.999999207258227
30
0
40
1.4999999999999991
0
LWPOLYLINE
5
109
100
AcDbEntity
8
0
100
AcDbPolyline
90
24
70
1
43
0.0
10
64.285714320603077
20
57.499999207258277
10
64.285714320603077
20
62.499999207258277
10
90.000000034888771
20
62.499999207258234
10
90.000000034888799
20
20.833332540591577
10
85.000000034888799
20
20.833332540591577
10
85.000000034888799
20
-20.833334126075091
10
90.000000034888799
20
-20.833334126075087
10
90.000000034888785
20
-62.500000792741766
10
30.000000034888767
20
-62.500000792741815
10
30.000000034888767
20
-57.500000792741815
10
-29.999999965111233
20
-57.500000792741815
10
-29.999999965111243
20
-62.500000792741815
10
-89.999999965111229
20
-62.500000792741766
10
-89.99999996511113
20
-20.833334126075084
10
-84.99999996511113
20
-20.833334126075084
10
-84.99999996511113
20
20.833332540591588
10
-89.99999996511113
20
20.833332540591591
10
-89.999999965111215
20
62.499999207258234
10
-64.285714250825507
20
62.499999207258298
10
-64.285714250825507
20
57.499999207258298
10
-38.571428536539784
20
57.499999207258298
10
-38.571428536539784
20
62.499999207258284
10
38.571428606317362
20
62.499999207258277
10
38.571428606317362
20
57.499999207258277
0
LWPOLYLINE
5
110
100
AcDbEntity
8
0
100
AcDbPolyline
90
24
70
1
43
0.0
10
85.150000034888805
20
-20.683334126075088
10
90.150000034888805
20
-20.683334126075088
10
90.150000034888791
20
-62.650000792741764
10
29.850000034888765
20
-62.650000792741814
10
29.850000034888758
20
-57.650000792741814
10
-29.84999996511123
20
-57.650000792741814
10
-29.849999965111245
20
-62.650000792741814
10
-90.149999965111235
20
-62.650000792741764
10
-90.149999965111135
20
-20.683334126075081
10
-85.149999965111135
20
-20.683334126075081
10
-85.149999965111135
20
20.683332540591586
10
-90.149999965111135
20
20.683332540591593
10
-90.14999996511122
20
62.649999207258233
10
-64.135714250825515
20
62.64999920725829
10
-64.135714250825515
20
57.64999920725829
10
-38.721428536539783
20
57.64999920725829
10
-38.721428536539783
20
62.649999207258283
10
38.72142860631736
20
62.649999207258276
10
38.72142860631736
20
57.649999207258276
10
64.135714320603086
20
57.649999207258276
10
64.135714320603086
20
62.649999207258276
10
90.150000034888777
20
62.649999207258233
10
90.150000034888805
20
20.683332540591579
10
85.150000034888805
20
20.683332540591579
0
ENDSEC
0
SECTION
2
OBJECTS
0
DICTIONARY
5
C
100
AcDbDictionary
3
ACAD_GROUP
350
D
3
ACAD_MLINESTYLE
350
17
0
DICTIONARY
5
D
100
AcDbDictionary
0
DICTIONARY
5
1A
330
C
100
AcDbDictionary
0
DICTIONARY
5
17
100
AcDbDictionary
0
ENDSEC
0
EOF
