0
SECTION
2
HEADER
9
$INSUNITS
70
4
9
$ACADVER
1
AC1014
9
$HANDSEED
5
FFFF
0
ENDSEC
0
SECTION
2
TABLES
0
TABLE
2
VPORT
5
8
100
AcDbSymbolTable
0
ENDTAB
0
TABLE
2
LTYPE
5
5
100
AcDbSymbolTable
0
LTYPE
5
14
100
AcDbSymbolTableRecord
100
AcDbLinetypeTableRecord
2
BYBLOCK
70
0
0
LTYPE
5
15
100
AcDbSymbolTableRecord
100
AcDbLinetypeTableRecord
2
BYLAYER
70
0
0
ENDTAB
0
TABLE
2
LAYER
5
2
100
AcDbSymbolTable
70
2
0
LAYER
5
50
100
AcDbSymbolTableRecord
100
AcDbLayerTableRecord
2
0
70
0
6
CONTINUOUS
0
ENDTAB
0
TABLE
2
STYLE
5
3
100
AcDbSymbolTable
70
1
0
STYLE
5
11
100
AcDbSymbolTableRecord
100
AcDbTextStyleTableRecord
2
STANDARD
70
0
0
ENDTAB
0
TABLE
2
VIEW
5
6
100
AcDbSymbolTable
70
0
0
ENDTAB
0
TABLE
2
UCS
5
7
100
AcDbSymbolTable
70
0
0
ENDTAB
0
TABLE
2
APPID
5
9
100
AcDbSymbolTable
70
2
0
APPID
5
12
100
AcDbSymbolTableRecord
100
AcDbRegAppTableRecord
2
ACAD
70
0
0
ENDTAB
0
TABLE
2
DIMSTYLE
5
A
100
AcDbSymbolTable
70
1
0
ENDTAB
0
TABLE
2
BLOCK_RECORD
5
1
100
AcDbSymbolTable
70
1
0
BLOCK_RECORD
5
1F
100
AcDbSymbolTableRecord
100
AcDbBlockTableRecord
2
*MODEL_SPACE
0
BLOCK_RECORD
5
1B
100
AcDbSymbolTableRecord
100
AcDbBlockTableRecord
2
*PAPER_SPACE
0
ENDTAB
0
ENDSEC
0
SECTION
2
BLOCKS
0
BLOCK
5
20
100
AcDbEntity
100
AcDbBlockBegin
2
*MODEL_SPACE
0
ENDBLK
5
21
100
AcDbEntity
100
AcDbBlockEnd
0
BLOCK
5
1C
100
AcDbEntity
100
AcDbBlockBegin
2
*PAPER_SPACE
0
ENDBLK
5
1D
100
AcDbEntity
100
AcDbBlockEnd
0
ENDSEC
0
SECTION
2
ENTITIES
0
CIRCLE
5
100
100
AcDbEntity
8
0
100
AcDbCircle
10
-32.478365291913022
20
-3.3817591365308126
30
0
40
1.6000000000000014
0
CIRCLE
5
101
100
AcDbEntity
8
0
100
AcDbCircle
10
-75.478365291912993
20
-3.3817591365308135
30
0
40
1.6000000000000014
0
LWPOLYLINE
5
102
100
AcDbEntity
8
0
100
AcDbPolyline
90
28
70
1
43
0.0
10
64.285714320603077
20
-20.000000476837158
10
64.285714320603077
20
-25.000000476837158
10
38.571428606317355
20
-25.000000476837158
10
38.571428606317355
20
-20.000000476837158
10
-38.571428536539784
20
-20.000000476837158
10
-38.571428536539791
20
-25.000000476837158
10
-64.285714250825507
20
-25.000000476837158
10
-64.285714250825507
20
-20.000000476837158
10
-84.999999965111158
20
-20.000000476837148
10
-84.999999965111144
20
-10.000000476837146
10
-89.999999965111144
20
-10.000000476837146
10
-89.999999965111144
20
9.9999995231628542
10
-84.999999965111144
20
9.9999995231628525
10
-84.999999965111144
20
19.999999523162852
10
-64.285714250825507
20
19.999999523162842
10
-64.285714250825507
20
24.999999523162842
10
-38.571428536539784
20
24.999999523162842
10
-38.571428536539784
20
19.999999523162842
10
38.571428606317355
20
19.999999523162842
10
38.571428606317355
20
24.999999523162842
10
64.285714320603077
20
24.999999523162842
10
64.285714320603091
20
19.999999523162842
10
85.000000034888856
20
19.999999523162842
10
85.000000034888856
20
9.9999995231628382
10
90.000000034888856
20
9.9999995231628382
10
90.000000034888856
20
-10.000000476837162
10
85.000000034888856
20
-10.000000476837162
10
85.000000034888814
20
-20.000000476837162
0
LWPOLYLINE
5
103
100
AcDbEntity
8
0
100
AcDbPolyline
90
28
70
1
43
0.0
10
85.150000034888819
20
-20.150000476837164
10
64.435714320603083
20
-20.150000476837157
10
64.435714320603083
20
-25.150000476837157
10
38.421428606317356
20
-25.150000476837157
10
38.421428606317356
20
-20.150000476837157
10
-38.421428536539786
20
-20.150000476837157
10
-38.421428536539793
20
-25.150000476837157
10
-64.435714250825512
20
-25.150000476837157
10
-64.435714250825498
20
-20.150000476837157
10
-85.149999965111164
20
-20.15000047683715
10
-85.149999965111149
20
-10.150000476837144
10
-90.149999965111149
20
-10.150000476837144
10
-90.149999965111149
20
10.149999523162855
10
-85.149999965111149
20
10.149999523162851
10
-85.149999965111149
20
20.149999523162855
10
-64.435714250825512
20
20.149999523162844
10
-64.435714250825498
20
25.149999523162844
10
-38.421428536539786
20
25.149999523162844
10
-38.421428536539786
20
20.149999523162844
10
38.421428606317356
20
20.149999523162844
10
38.421428606317349
20
25.149999523162844
10
64.435714320603083
20
25.149999523162844
10
64.435714320603083
20
20.14999952316284
10
85.150000034888862
20
20.14999952316284
10
85.150000034888862
20
10.149999523162839
10
90.150000034888862
20
10.149999523162839
10
90.150000034888862
20
-10.15000047683716
10
85.150000034888862
20
-10.15000047683716
0
LWPOLYLINE
5
104
100
AcDbEntity
8
0
100
AcDbPolyline
90
4
70
1
43
0.0
10
-71.128365291912999
20
-15.531759136530781
10
-36.828365291913016
20
-15.531759136530784
10
-36.828365291913016
20
8.7682408634691562
10
-71.128365291912999
20
8.7682408634691598
0
LWPOLYLINE
5
105
100
AcDbEntity
8
0
100
AcDbPolyline
90
8
70
1
43
0.0
10
52.854750423557284
20
5.1566957030295679
10
52.854750423557284
20
-4.4747868412104417
42
0.19403883219280951
10
53.176458864928634
20
-5.2725544100577491
42
0.42525174557599932
10
64.833041982185918
20
-5.2725544100577473
42
0.19403883219280851
10
65.154750423557289
20
-4.4747868412104435
10
65.154750423557289
20
5.1566957030295724
42
0.1940388321928081
10
64.833041982185932
20
5.9544632718769206
42
0.42525174557599871
10
53.176458864928634
20
5.9544632718768735
42
0.19403883219277757
0
ENDSEC
0
SECTION
2
OBJECTS
0
DICTIONARY
5
C
100
AcDbDictionary
3
ACAD_GROUP
350
D
3
ACAD_MLINESTYLE
350
17
0
DICTIONARY
5
D
100
AcDbDictionary
0
DICTIONARY
5
1A
330
C
100
AcDbDictionary
0
DICTIONARY
5
17
100
AcDbDictionary
0
ENDSEC
0
EOF
