0
SECTION
2
HEADER
9
$INSUNITS
70
4
9
$ACADVER
1
AC1014
9
$HANDSEED
5
FFFF
0
ENDSEC
0
SECTION
2
TABLES
0
TABLE
2
VPORT
5
8
100
AcDbSymbolTable
0
ENDTAB
0
TABLE
2
LTYPE
5
5
100
AcDbSymbolTable
0
LTYPE
5
14
100
AcDbSymbolTableRecord
100
AcDbLinetypeTableRecord
2
BYBLOCK
70
0
0
LTYPE
5
15
100
AcDbSymbolTableRecord
100
AcDbLinetypeTableRecord
2
BYLAYER
70
0
0
ENDTAB
0
TABLE
2
LAYER
5
2
100
AcDbSymbolTable
70
2
0
LAYER
5
50
100
AcDbSymbolTableRecord
100
AcDbLayerTableRecord
2
0
70
0
6
CONTINUOUS
0
ENDTAB
0
TABLE
2
STYLE
5
3
100
AcDbSymbolTable
70
1
0
STYLE
5
11
100
AcDbSymbolTableRecord
100
AcDbTextStyleTableRecord
2
STANDARD
70
0
0
ENDTAB
0
TABLE
2
VIEW
5
6
100
AcDbSymbolTable
70
0
0
ENDTAB
0
TABLE
2
UCS
5
7
100
AcDbSymbolTable
70
0
0
ENDTAB
0
TABLE
2
APPID
5
9
100
AcDbSymbolTable
70
2
0
APPID
5
12
100
AcDbSymbolTableRecord
100
AcDbRegAppTableRecord
2
ACAD
70
0
0
ENDTAB
0
TABLE
2
DIMSTYLE
5
A
100
AcDbSymbolTable
70
1
0
ENDTAB
0
TABLE
2
BLOCK_RECORD
5
1
100
AcDbSymbolTable
70
1
0
BLOCK_RECORD
5
1F
100
AcDbSymbolTableRecord
100
AcDbBlockTableRecord
2
*MODEL_SPACE
0
BLOCK_RECORD
5
1B
100
AcDbSymbolTableRecord
100
AcDbBlockTableRecord
2
*PAPER_SPACE
0
ENDTAB
0
ENDSEC
0
SECTION
2
BLOCKS
0
BLOCK
5
20
100
AcDbEntity
100
AcDbBlockBegin
2
*MODEL_SPACE
0
ENDBLK
5
21
100
AcDbEntity
100
AcDbBlockEnd
0
BLOCK
5
1C
100
AcDbEntity
100
AcDbBlockBegin
2
*PAPER_SPACE
0
ENDBLK
5
1D
100
AcDbEntity
100
AcDbBlockEnd
0
ENDSEC
0
SECTION
2
ENTITIES
0
CIRCLE
5
100
100
AcDbEntity
8
0
100
AcDbCircle
10
-55.773894557340967
20
14.544210700674807
30
5.5511151231257827e-16
40
1.25
0
CIRCLE
5
101
100
AcDbEntity
8
0
100
AcDbCircle
10
20.726105442659033
20
14.999999843037875
30
0
40
1.2499999999999978
0
CIRCLE
5
102
100
AcDbEntity
8
0
100
AcDbCircle
10
21.726105442659037
20
-22.000000484787673
30
0
40
1.25
0
CIRCLE
5
103
100
AcDbEntity
8
0
100
AcDbCircle
10
-56.773894557340967
20
-21.9557892993252
30
-5.5511151231257827e-16
40
1.25
0
LWPOLYLINE
5
104
100
AcDbEntity
8
0
100
AcDbPolyline
90
26
70
1
43
0.0
10
17.801573881429313
20
13.099625660969314
10
17.801573881429313
20
18.294210700674796
10
23.476105442659048
20
18.294210700674796
42
-0.41421356237309048
10
24.476105442659033
20
17.294210700674807
10
24.476105442659033
20
-24.705789299325197
42
-0.41421356237308854
10
23.476105442659041
20
-25.705789299325197
10
-58.523894557340967
20
-25.7057892993252
42
-0.4142135623730937
10
-59.523894557340967
20
-24.70578929932519
10
-59.523894557340967
20
-16.055789314226356
10
-55.373894572242143
20
-16.055789314226356
10
-55.373894572242143
20
-16.705789299325197
42
0.41421356237309503
10
-53.373894557340989
20
-18.705789314226362
10
18.326105442659031
20
-18.705789314226358
42
0.41421356237309859
10
20.326105457560185
20
-16.705789299325197
10
20.326105457560196
20
6.0942107006748039
42
0.4142135623730957
10
18.326105442659035
20
8.0942107155759633
10
-53.373894557340975
20
8.0942107155759686
42
0.41421356237310086
10
-55.373894572242143
20
6.0942107006747968
10
-55.373894572242143
20
5.4442107155759665
10
-59.523894557340967
20
5.4442107155759683
10
-59.523894557340981
20
17.294210700674803
42
-0.41421356237309764
10
-58.523894557340967
20
18.294210700674803
10
-27.204131493644212
20
18.29421070067481
10
-27.204131493644212
20
13.099625660969325
42
0.4142135623730937
10
-25.204131493644208
20
11.099625660969325
10
15.801573881429311
20
11.099625660969314
42
0.41421356237309503
0
ENDSEC
0
SECTION
2
OBJECTS
0
DICTIONARY
5
C
100
AcDbDictionary
3
ACAD_GROUP
350
D
3
ACAD_MLINESTYLE
350
17
0
DICTIONARY
5
D
100
AcDbDictionary
0
DICTIONARY
5
1A
330
C
100
AcDbDictionary
0
DICTIONARY
5
17
100
AcDbDictionary
0
ENDSEC
0
EOF
