0
SECTION
2
HEADER
9
$INSUNITS
70
4
9
$ACADVER
1
AC1014
9
$HANDSEED
5
FFFF
0
ENDSEC
0
SECTION
2
TABLES
0
TABLE
2
VPORT
5
8
100
AcDbSymbolTable
0
ENDTAB
0
TABLE
2
LTYPE
5
5
100
AcDbSymbolTable
0
LTYPE
5
14
100
AcDbSymbolTableRecord
100
AcDbLinetypeTableRecord
2
BYBLOCK
70
0
0
LTYPE
5
15
100
AcDbSymbolTableRecord
100
AcDbLinetypeTableRecord
2
BYLAYER
70
0
0
ENDTAB
0
TABLE
2
LAYER
5
2
100
AcDbSymbolTable
70
2
0
LAYER
5
50
100
AcDbSymbolTableRecord
100
AcDbLayerTableRecord
2
0
70
0
6
CONTINUOUS
0
ENDTAB
0
TABLE
2
STYLE
5
3
100
AcDbSymbolTable
70
1
0
STYLE
5
11
100
AcDbSymbolTableRecord
100
AcDbTextStyleTableRecord
2
STANDARD
70
0
0
ENDTAB
0
TABLE
2
VIEW
5
6
100
AcDbSymbolTable
70
0
0
ENDTAB
0
TABLE
2
UCS
5
7
100
AcDbSymbolTable
70
0
0
ENDTAB
0
TABLE
2
APPID
5
9
100
AcDbSymbolTable
70
2
0
APPID
5
12
100
AcDbSymbolTableRecord
100
AcDbRegAppTableRecord
2
ACAD
70
0
0
ENDTAB
0
TABLE
2
DIMSTYLE
5
A
100
AcDbSymbolTable
70
1
0
ENDTAB
0
TABLE
2
BLOCK_RECORD
5
1
100
AcDbSymbolTable
70
1
0
BLOCK_RECORD
5
1F
100
AcDbSymbolTableRecord
100
AcDbBlockTableRecord
2
*MODEL_SPACE
0
BLOCK_RECORD
5
1B
100
AcDbSymbolTableRecord
100
AcDbBlockTableRecord
2
*PAPER_SPACE
0
ENDTAB
0
ENDSEC
0
SECTION
2
BLOCKS
0
BLOCK
5
20
100
AcDbEntity
100
AcDbBlockBegin
2
*MODEL_SPACE
0
ENDBLK
5
21
100
AcDbEntity
100
AcDbBlockEnd
0
BLOCK
5
1C
100
AcDbEntity
100
AcDbBlockBegin
2
*PAPER_SPACE
0
ENDBLK
5
1D
100
AcDbEntity
100
AcDbBlockEnd
0
ENDSEC
0
SECTION
2
ENTITIES
0
CIRCLE
5
100
100
AcDbEntity
8
0
100
AcDbCircle
10
82.500000034888785
20
54.999999207258227
30
0
40
1.9999999999999929
0
CIRCLE
5
101
100
AcDbEntity
8
0
100
AcDbCircle
10
82.500000034888785
20
-55.000000792741766
30
0
40
2.0000000000000107
0
CIRCLE
5
102
100
AcDbEntity
8
0
100
AcDbCircle
10
-82.499999965111215
20
54.999999207258234
30
0
40
2.0000000000000107
0
CIRCLE
5
103
100
AcDbEntity
8
0
100
AcDbCircle
10
-82.499999965111201
20
-55.000000792741766
30
0
40
1.9999999999999929
0
LWPOLYLINE
5
104
100
AcDbEntity
8
0
100
AcDbPolyline
90
24
70
1
43
0.0
10
-89.999999965111215
20
62.499999207258234
10
-64.285714250825507
20
62.499999207258242
10
-64.285714250825507
20
57.499999207258242
10
-38.571428536539791
20
57.499999207258242
10
-38.571428536539791
20
62.499999207258234
10
38.571428606317355
20
62.499999207258227
10
38.571428606317355
20
57.499999207258227
10
64.285714320603077
20
57.499999207258227
10
64.285714320603077
20
62.499999207258227
10
90.000000034888771
20
62.499999207258234
10
90.000000034888842
20
20.83333254059157
10
85.000000034888842
20
20.83333254059157
10
85.000000034888842
20
-20.833334126075101
10
90.000000034888842
20
-20.833334126075105
10
90.000000034888785
20
-62.500000792741766
10
30.000000034888778
20
-62.500000792741766
10
30.000000034888778
20
-57.500000792741766
10
-29.999999965111222
20
-57.500000792741766
10
-29.999999965111233
20
-62.500000792741766
10
-89.999999965111229
20
-62.500000792741766
10
-89.999999965111158
20
-20.833334126075084
10
-84.999999965111158
20
-20.833334126075084
10
-84.999999965111158
20
20.833332540591588
10
-89.999999965111158
20
20.833332540591591
0
CIRCLE
5
105
100
AcDbEntity
8
0
100
AcDbCircle
10
39.250000034889005
20
-52.250000792741659
30
0
40
1.25
0
CIRCLE
5
106
100
AcDbEntity
8
0
100
AcDbCircle
10
38.250000034889055
20
-15.750000792741734
30
0
40
1.2500000000000089
0
CIRCLE
5
107
100
AcDbEntity
8
0
100
AcDbCircle
10
-39.249999965111556
20
-52.294211978204132
30
0
40
1.25
0
LWPOLYLINE
5
108
100
AcDbEntity
8
0
100
AcDbPolyline
90
8
70
1
43
0.0
10
36.850000034889014
20
-47.000000792741673
10
36.85000003488905
20
-24.200000792741715
42
0.41421356237310025
10
35.85000003488905
20
-23.200000792741715
10
-35.8499999651115
20
-23.200000792741726
42
0.41421356237310025
10
-36.849999965111515
20
-24.200000792741715
10
-36.849999965111536
20
-47.00000079274168
42
0.41421356237311452
10
-35.849999965111536
20
-48.000000792741666
10
35.850000034889007
20
-48.000000792741666
42
0.41421356237309243
0
CIRCLE
5
109
100
AcDbEntity
8
0
100
AcDbCircle
10
-38.249999965111499
20
-15.294211650378671
30
0
40
1.2500000000000089
0
CIRCLE
5
110
100
AcDbEntity
8
0
100
AcDbCircle
10
-22.999999965111222
20
53.499999207258249
30
0
40
1.0000000000000009
0
LWPOLYLINE
5
111
100
AcDbEntity
8
0
100
AcDbPolyline
90
8
70
1
43
0.0
10
-22.999999965111222
20
47.499999207258234
42
-0.41421356237309453
10
-17.999999965111215
20
52.499999207258234
10
18.000000034888785
20
52.499999207258234
42
-0.41421356237309387
10
23.000000034888785
20
47.499999207258234
10
23.000000034888778
20
0.49999920725822489
42
-0.41421356237309609
10
18.000000034888775
20
-4.5000007927417691
10
-17.999999965111225
20
-4.5000007927417638
42
-0.41421356237309542
10
-22.999999965111222
20
0.49999920725823266
0
CIRCLE
5
112
100
AcDbEntity
8
0
100
AcDbCircle
10
23.000000034888785
20
53.499999207258242
30
0
40
1.0000000000000009
0
CIRCLE
5
113
100
AcDbEntity
8
0
100
AcDbCircle
10
-22.999999965111229
20
-5.5000007927417638
30
0
40
1.0000000000000009
0
CIRCLE
5
114
100
AcDbEntity
8
0
100
AcDbCircle
10
23.000000034888775
20
-5.5000007927417638
30
0
40
1.0000000000000009
0
LWPOLYLINE
5
115
100
AcDbEntity
8
0
100
AcDbPolyline
90
24
70
1
43
0.0
10
38.721428606317353
20
62.649999207258219
10
38.721428606317353
20
57.649999207258219
10
64.135714320603086
20
57.649999207258219
10
64.135714320603071
20
62.649999207258219
10
90.150000034888777
20
62.649999207258233
10
90.150000034888848
20
20.683332540591568
10
85.150000034888848
20
20.683332540591568
10
85.150000034888848
20
-20.683334126075099
10
90.150000034888848
20
-20.68333412607511
10
90.150000034888791
20
-62.650000792741764
10
29.850000034888776
20
-62.650000792741764
10
29.850000034888765
20
-57.650000792741764
10
-29.849999965111223
20
-57.650000792741764
10
-29.849999965111227
20
-62.650000792741764
10
-90.149999965111235
20
-62.650000792741764
10
-90.149999965111164
20
-20.683334126075081
10
-85.149999965111164
20
-20.683334126075081
10
-85.149999965111164
20
20.683332540591586
10
-90.149999965111164
20
20.683332540591593
10
-90.14999996511122
20
62.649999207258233
10
-64.135714250825515
20
62.64999920725824
10
-64.135714250825515
20
57.64999920725824
10
-38.72142853653979
20
57.64999920725824
10
-38.72142853653979
20
62.649999207258233
0
ENDSEC
0
SECTION
2
OBJECTS
0
DICTIONARY
5
C
100
AcDbDictionary
3
ACAD_GROUP
350
D
3
ACAD_MLINESTYLE
350
17
0
DICTIONARY
5
D
100
AcDbDictionary
0
DICTIONARY
5
1A
330
C
100
AcDbDictionary
0
DICTIONARY
5
17
100
AcDbDictionary
0
ENDSEC
0
EOF
